{"asset":{"version":"2.0","generator":"THREE.GLTFExporter r175"},"scenes":[{"name":"AuxScene","nodes":[18]}],"scene":0,"nodes":[{"mesh":0},{"mesh":1},{"mesh":2},{"mesh":3},{"mesh":4},{"mesh":5},{"mesh":6},{"mesh":7},{"mesh":8},{"mesh":9},{"mesh":10},{"mesh":11},{"mesh":12},{"mesh":13},{"matrix":[0.45886228500100423,0,-0.4588622850010043,0,0,-0.6489292667099287,0,0,0.4588622850010043,0,0.45886228500100423,0,0,0,0,1],"children":[0,1,2,3,4,5,6,7,8,9,10,11,12,13]},{"children":[14]},{"matrix":[1,0,0,0,0,1,0,0,0,0,1,0,-36.2811383973011,19.695003240778416,34.44568936669839,1],"children":[15]},{"children":[16]},{"children":[17]}],"bufferViews":[{"buffer":0,"byteOffset":0,"byteLength":2736,"target":34962,"byteStride":12},{"buffer":0,"byteOffset":2736,"byteLength":1824,"target":34962,"byteStride":8},{"buffer":0,"byteOffset":4560,"byteLength":2736,"target":34962,"byteStride":12},{"buffer":0,"byteOffset":7296,"byteLength":2736,"target":34962,"byteStride":12},{"buffer":0,"byteOffset":10032,"byteLength":1824,"target":34962,"byteStride":8},{"buffer":0,"byteOffset":11856,"byteLength":2736,"target":34962,"byteStride":12},{"buffer":0,"byteOffset":14592,"byteLength":2016,"target":34962,"byteStride":12},{"buffer":0,"byteOffset":16608,"byteLength":1344,"target":34962,"byteStride":8},{"buffer":0,"byteOffset":17952,"byteLength":2016,"target":34962,"byteStride":12},{"buffer":0,"byteOffset":19968,"byteLength":3456,"target":34962,"byteStride":12},{"buffer":0,"byteOffset":23424,"byteLength":2304,"target":34962,"byteStride":8},{"buffer":0,"byteOffset":25728,"byteLength":3456,"target":34962,"byteStride":12},{"buffer":0,"byteOffset":29184,"byteLength":4176,"target":34962,"byteStride":12},{"buffer":0,"byteOffset":33360,"byteLength":2784,"target":34962,"byteStride":8},{"buffer":0,"byteOffset":36144,"byteLength":4176,"target":34962,"byteStride":12},{"buffer":0,"byteOffset":40320,"byteLength":2736,"target":34962,"byteStride":12},{"buffer":0,"byteOffset":43056,"byteLength":1824,"target":34962,"byteStride":8},{"buffer":0,"byteOffset":44880,"byteLength":2736,"target":34962,"byteStride":12},{"buffer":0,"byteOffset":47616,"byteLength":2736,"target":34962,"byteStride":12},{"buffer":0,"byteOffset":50352,"byteLength":1824,"target":34962,"byteStride":8},{"buffer":0,"byteOffset":52176,"byteLength":2736,"target":34962,"byteStride":12},{"buffer":0,"byteOffset":54912,"byteLength":2736,"target":34962,"byteStride":12},{"buffer":0,"byteOffset":57648,"byteLength":1824,"target":34962,"byteStride":8},{"buffer":0,"byteOffset":59472,"byteLength":2736,"target":34962,"byteStride":12},{"buffer":0,"byteOffset":62208,"byteLength":2736,"target":34962,"byteStride":12},{"buffer":0,"byteOffset":64944,"byteLength":1824,"target":34962,"byteStride":8},{"buffer":0,"byteOffset":66768,"byteLength":2736,"target":34962,"byteStride":12},{"buffer":0,"byteOffset":69504,"byteLength":2016,"target":34962,"byteStride":12},{"buffer":0,"byteOffset":71520,"byteLength":1344,"target":34962,"byteStride":8},{"buffer":0,"byteOffset":72864,"byteLength":2016,"target":34962,"byteStride":12},{"buffer":0,"byteOffset":74880,"byteLength":3456,"target":34962,"byteStride":12},{"buffer":0,"byteOffset":78336,"byteLength":2304,"target":34962,"byteStride":8},{"buffer":0,"byteOffset":80640,"byteLength":3456,"target":34962,"byteStride":12},{"buffer":0,"byteOffset":84096,"byteLength":4176,"target":34962,"byteStride":12},{"buffer":0,"byteOffset":88272,"byteLength":2784,"target":34962,"byteStride":8},{"buffer":0,"byteOffset":91056,"byteLength":4176,"target":34962,"byteStride":12},{"buffer":0,"byteOffset":95232,"byteLength":4176,"target":34962,"byteStride":12},{"buffer":0,"byteOffset":99408,"byteLength":2784,"target":34962,"byteStride":8},{"buffer":0,"byteOffset":102192,"byteLength":4176,"target":34962,"byteStride":12},{"buffer":0,"byteOffset":106368,"byteLength":5616,"target":34962,"byteStride":12},{"buffer":0,"byteOffset":111984,"byteLength":3744,"target":34962,"byteStride":8},{"buffer":0,"byteOffset":115728,"byteLength":5616,"target":34962,"byteStride":12}],"buffers":[{"byteLength":121344,"uri":"data:application/octet-stream;base64,"}],"accessors":[{"bufferView":0,"componentType":5126,"count":228,"max":[30.600000381469727,60.5,4.599999904632568],"min":[17.600000381469727,25.92202377319336,-0.6000000238418579],"type":"VEC3"},{"bufferView":1,"componentType":5126,"count":228,"max":[60.5,60.20000076293945],"min":[17.600000381469727,-3.5999999046325684],"type":"VEC2"},{"bufferView":2,"componentType":5126,"count":228,"max":[1,1,1],"min":[-0.9999951720237732,-0.8132572174072266,-1],"type":"VEC3"},{"bufferView":3,"componentType":5126,"count":228,"max":[12.800000190734863,60.5,4.599999904632568],"min":[-0.30000001192092896,0.10868895053863525,-0.6000000238418579],"type":"VEC3"},{"bufferView":4,"componentType":5126,"count":228,"max":[60.5,60.20000076293945],"min":[-0.30000001192092896,-3.5999999046325684],"type":"VEC2"},{"bufferView":5,"componentType":5126,"count":228,"max":[1,1,1],"min":[-0.9999974370002747,-0.7180516123771667,-1],"type":"VEC3"},{"bufferView":6,"componentType":5126,"count":168,"max":[62.83064651489258,59.965843200683594,4.599999904632568],"min":[-0.30000001192092896,0.1102677583694458,-0.6000000238418579],"type":"VEC3"},{"bufferView":7,"componentType":5126,"count":168,"max":[62.83064651489258,59.70000076293945],"min":[-0.30000001192092896,-3.5999999046325684],"type":"VEC2"},{"bufferView":8,"componentType":5126,"count":168,"max":[0.6887929439544678,0.8294960856437683,1],"min":[-0.9999709129333496,-0.7249889969825745,-1],"type":"VEC3"},{"bufferView":9,"componentType":5126,"count":288,"max":[94.30000305175781,60.400001525878906,4.599999904632568],"min":[81.30000305175781,0.2987927794456482,-0.6000000238418579],"type":"VEC3"},{"bufferView":10,"componentType":5126,"count":288,"max":[94.30000305175781,60.099998474121094],"min":[0.2987927794456482,-3.5999999046325684],"type":"VEC2"},{"bufferView":11,"componentType":5126,"count":288,"max":[1,1,1],"min":[-1,-0.9999682307243347,-1],"type":"VEC3"},{"bufferView":12,"componentType":5126,"count":348,"max":[94.3929214477539,39.02426528930664,4.599999904632568],"min":[17.608030319213867,0.19853079319000244,-0.6000000238418579],"type":"VEC3"},{"bufferView":13,"componentType":5126,"count":348,"max":[94.3929214477539,38.599998474121094],"min":[0.337641179561615,-3.5999999046325684],"type":"VEC2"},{"bufferView":14,"componentType":5126,"count":348,"max":[0.7088671326637268,0.7053419947624207,1],"min":[-0.7088879346847534,-0.9999680519104004,-1],"type":"VEC3"},{"bufferView":15,"componentType":5126,"count":228,"max":[154.3919677734375,61,4.599999904632568],"min":[99.19999694824219,5.80803108215332,-0.6000000238418579],"type":"VEC3"},{"bufferView":16,"componentType":5126,"count":228,"max":[154.3919677734375,60.70000076293945],"min":[5.80803108215332,-3.5999999046325684],"type":"VEC2"},{"bufferView":17,"componentType":5126,"count":228,"max":[0.7071067690849304,0.9999440908432007,1],"min":[-0.9999440908432007,-0.7071067690849304,-1],"type":"VEC3"},{"bufferView":18,"componentType":5126,"count":228,"max":[154.49197387695312,60.299007415771484,4.599999904632568],"min":[81.20875549316406,-0.30000001192092896,-0.6000000238418579],"type":"VEC3"},{"bufferView":19,"componentType":5126,"count":228,"max":[154.49197387695312,60.099998474121094],"min":[-0.30000001192092896,-3.5999999046325684],"type":"VEC2"},{"bufferView":20,"componentType":5126,"count":228,"max":[0.7082459330558777,0.9999964237213135,1],"min":[-0.7088441848754883,-0.9999440908432007,-1],"type":"VEC3"},{"bufferView":21,"componentType":5126,"count":228,"max":[30.600000381469727,60.5,4.599999904632568],"min":[17.600000381469727,25.92202377319336,-0.6000000238418579],"type":"VEC3"},{"bufferView":22,"componentType":5126,"count":228,"max":[60.5,60.20000076293945],"min":[17.600000381469727,-3.5999999046325684],"type":"VEC2"},{"bufferView":23,"componentType":5126,"count":228,"max":[1,1,1],"min":[-0.9999951720237732,-0.8132572174072266,-1],"type":"VEC3"},{"bufferView":24,"componentType":5126,"count":228,"max":[12.800000190734863,60.5,4.599999904632568],"min":[-0.30000001192092896,0.10868895053863525,-0.6000000238418579],"type":"VEC3"},{"bufferView":25,"componentType":5126,"count":228,"max":[60.5,60.20000076293945],"min":[-0.30000001192092896,-3.5999999046325684],"type":"VEC2"},{"bufferView":26,"componentType":5126,"count":228,"max":[1,1,1],"min":[-0.9999974370002747,-0.7180516123771667,-1],"type":"VEC3"},{"bufferView":27,"componentType":5126,"count":168,"max":[62.83064651489258,59.965843200683594,4.599999904632568],"min":[-0.30000001192092896,0.1102677583694458,-0.6000000238418579],"type":"VEC3"},{"bufferView":28,"componentType":5126,"count":168,"max":[62.83064651489258,59.70000076293945],"min":[-0.30000001192092896,-3.5999999046325684],"type":"VEC2"},{"bufferView":29,"componentType":5126,"count":168,"max":[0.6887929439544678,0.8294960856437683,1],"min":[-0.9999709129333496,-0.7249889969825745,-1],"type":"VEC3"},{"bufferView":30,"componentType":5126,"count":288,"max":[94.30000305175781,60.400001525878906,4.599999904632568],"min":[81.30000305175781,0.2987927794456482,-0.6000000238418579],"type":"VEC3"},{"bufferView":31,"componentType":5126,"count":288,"max":[94.30000305175781,60.099998474121094],"min":[0.2987927794456482,-3.5999999046325684],"type":"VEC2"},{"bufferView":32,"componentType":5126,"count":288,"max":[1,1,1],"min":[-1,-0.9999682307243347,-1],"type":"VEC3"},{"bufferView":33,"componentType":5126,"count":348,"max":[94.3929214477539,39.02426528930664,4.599999904632568],"min":[17.608030319213867,0.19853079319000244,-0.6000000238418579],"type":"VEC3"},{"bufferView":34,"componentType":5126,"count":348,"max":[94.3929214477539,38.599998474121094],"min":[0.337641179561615,-3.5999999046325684],"type":"VEC2"},{"bufferView":35,"componentType":5126,"count":348,"max":[0.7088671326637268,0.7053419947624207,1],"min":[-0.7088879346847534,-0.9999680519104004,-1],"type":"VEC3"},{"bufferView":36,"componentType":5126,"count":348,"max":[154.40628051757812,61,4.599999904632568],"min":[81.20882415771484,31.214370727539062,-0.6000000238418579],"type":"VEC3"},{"bufferView":37,"componentType":5126,"count":348,"max":[154.40628051757812,60.70000076293945],"min":[31.214370727539062,-3.5999999046325684],"type":"VEC2"},{"bufferView":38,"componentType":5126,"count":348,"max":[0.7055910229682922,0.9999964237213135,1],"min":[-0.7107424736022949,-0.8322449326515198,-1],"type":"VEC3"},{"bufferView":39,"componentType":5126,"count":468,"max":[154.49197387695312,60.97941589355469,4.599999904632568],"min":[99.19999694824219,-0.30000001192092896,-0.6000000238418579],"type":"VEC3"},{"bufferView":40,"componentType":5126,"count":468,"max":[154.49197387695312,60.70000076293945],"min":[-0.30000001192092896,-3.5999999046325684],"type":"VEC2"},{"bufferView":41,"componentType":5126,"count":468,"max":[0.7115653157234192,0.7970220446586609,1],"min":[-0.9999440908432007,-0.9999440908432007,-1],"type":"VEC3"}],"materials":[{"pbrMetallicRoughness":{"baseColorFactor":[0.6375968739867731,0.6653872982754769,0.7083757798856457,1],"metallicFactor":0,"roughnessFactor":0.3},"doubleSided":true,"extensions":{"KHR_materials_transmission":{"transmissionFactor":1},"KHR_materials_volume":{"thicknessFactor":0,"attenuationColor":[1,1,1]}}}],"meshes":[{"primitives":[{"mode":4,"attributes":{"POSITION":0,"TEXCOORD_0":1,"NORMAL":2},"material":0}]},{"primitives":[{"mode":4,"attributes":{"POSITION":3,"TEXCOORD_0":4,"NORMAL":5},"material":0}]},{"primitives":[{"mode":4,"attributes":{"POSITION":6,"TEXCOORD_0":7,"NORMAL":8},"material":0}]},{"primitives":[{"mode":4,"attributes":{"POSITION":9,"TEXCOORD_0":10,"NORMAL":11},"material":0}]},{"primitives":[{"mode":4,"attributes":{"POSITION":12,"TEXCOORD_0":13,"NORMAL":14},"material":0}]},{"primitives":[{"mode":4,"attributes":{"POSITION":15,"TEXCOORD_0":16,"NORMAL":17},"material":0}]},{"primitives":[{"mode":4,"attributes":{"POSITION":18,"TEXCOORD_0":19,"NORMAL":20},"material":0}]},{"primitives":[{"mode":4,"attributes":{"POSITION":21,"TEXCOORD_0":22,"NORMAL":23},"material":0}]},{"primitives":[{"mode":4,"attributes":{"POSITION":24,"TEXCOORD_0":25,"NORMAL":26},"material":0}]},{"primitives":[{"mode":4,"attributes":{"POSITION":27,"TEXCOORD_0":28,"NORMAL":29},"material":0}]},{"primitives":[{"mode":4,"attributes":{"POSITION":30,"TEXCOORD_0":31,"NORMAL":32},"material":0}]},{"primitives":[{"mode":4,"attributes":{"POSITION":33,"TEXCOORD_0":34,"NORMAL":35},"material":0}]},{"primitives":[{"mode":4,"attributes":{"POSITION":36,"TEXCOORD_0":37,"NORMAL":38},"material":0}]},{"primitives":[{"mode":4,"attributes":{"POSITION":39,"TEXCOORD_0":40,"NORMAL":41},"material":0}]}],"extensionsUsed":["KHR_materials_transmission","KHR_materials_volume"]}