<svg xmlns="http://www.w3.org/2000/svg" version="1.1" xmlns:xlink="http://www.w3.org/1999/xlink" width="154.1" height="60.7"><svg xmlns="http://www.w3.org/2000/svg" version="1.1" xmlns:xlink="http://www.w3.org/1999/xlink" width="154.1" height="60.7"><svg xmlns="http://www.w3.org/2000/svg" version="1.1" viewBox="0 0 154.1 60.7">
  <defs>
    <style>
      .cls-1 {
        display: none;
      }
    </style>
  </defs>
  <!-- Generator: Adobe Illustrator 28.7.3, SVG Export Plug-In . SVG Version: 1.2.0 Build 164)  -->
  <g>
    <g id="Layer_2" class="cls-1">
      <g id="Layer_3">
        <polygon points="17.9 60.2 17.9 26.3 30.3 35.3 30.3 60.2 17.9 60.2"></polygon>
        <polygon points="0 60.2 0 .5 12.5 12.8 12.5 60.2 0 60.2"></polygon>
        <polygon points="0 .5 62.5 59.7 0 17.3 0 .5"></polygon>
        <polygon points="94 60.1 81.6 60.1 81.6 .6 94 .7 94 47.7 94 60.1"></polygon>
        <polygon points="94 .7 56.1 38.6 18 .5 34.7 .5 55.9 21.6 77.1 .5 94 .7"></polygon>
        <polygon points="154 60.7 99.5 6.2 99.5 18.7 141.5 60.7 154 60.7"></polygon>
        <polygon points="81.6 60.1 141.6 0 154.1 0 94.1 60 81.6 60.1"></polygon>
      </g>
    </g>
    <g id="Layer_3-2" data-name="Layer_3">
      <g id="Layer_3-3" data-name="Layer_3">
        <polygon points="17.9 60.2 17.9 26.3 30.3 35.3 30.3 60.2 17.9 60.2"></polygon>
        <polygon points="0 60.2 0 .5 12.5 12.8 12.5 60.2 0 60.2"></polygon>
        <polygon points="0 .5 62.5 59.7 0 17.3 0 .5"></polygon>
        <polygon points="94 60.1 81.6 60.1 81.6 .6 94 .7 94 47.7 94 60.1"></polygon>
        <polygon points="94 .7 56.1 38.6 18 .5 34.7 .5 55.9 21.6 77.1 .5 94 .7"></polygon>
        <g>
          <polygon points="81.6 60.1 94.1 60 117.5 36.7 141.5 60.7 154 60.7 110 31.6 81.6 60.1"></polygon>
          <polygon points="154.1 0 141.6 0 117.5 24.2 99.5 6.2 99.5 18.7 101 20.2 154 60.7 123.7 30.4 154.1 0"></polygon>
        </g>
      </g>
    </g>
  </g>
</svg></svg><style>@media (prefers-color-scheme: light) { :root { filter: none; } }
@media (prefers-color-scheme: dark) { :root { filter: none; } }
</style></svg>